<?xml version="1.0" encoding="UTF-8" standalone="no"?>
<!DOCTYPE svg PUBLIC "-//W3C//DTD SVG 1.1//EN"
 "http://www.w3.org/Graphics/SVG/1.1/DTD/svg11.dtd">
<!-- Generated by graphviz version 7.0.4 (20221203.1631)
 -->
<!-- Title: D Pages: 1 -->
<svg width="348pt" height="218pt"
 viewBox="0.00 0.00 347.69 218.00" xmlns="http://www.w3.org/2000/svg" xmlns:xlink="http://www.w3.org/1999/xlink">
<g id="graph0" class="graph" transform="scale(1 1) rotate(0) translate(4 214)">
<title>D</title>
<polygon fill="white" stroke="none" points="-4,4 -4,-214 343.69,-214 343.69,4 -4,4"/>
<!-- client[1] -->
<g id="node1" class="node">
<title>client[1]</title>
<polygon fill="none" stroke="black" points="191.46,-210 129.46,-210 129.46,-174 191.46,-174 191.46,-210"/>
<text text-anchor="middle" x="160.46" y="-188.3" font-family="Times,serif" font-size="14.00">client[1]</text>
</g>
<!-- router -->
<g id="node6" class="node">
<title>router</title>
<polygon fill="none" stroke="black" points="187.46,-123 133.46,-123 133.46,-87 187.46,-87 187.46,-123"/>
<text text-anchor="middle" x="160.46" y="-101.3" font-family="Times,serif" font-size="14.00">router</text>
</g>
<!-- client[1]&#45;&gt;router -->
<g id="edge1" class="edge">
<title>client[1]&#45;&gt;router</title>
<path fill="none" stroke="black" d="M153.32,-173.85C151.33,-168.26 149.45,-161.96 148.46,-156 147.28,-148.92 148.02,-141.35 149.6,-134.31"/>
<polygon fill="black" stroke="black" points="152.9,-135.49 152.31,-124.92 146.18,-133.56 152.9,-135.49"/>
<text text-anchor="middle" x="151.96" y="-144.8" font-family="Times,serif" font-size="14.00">1</text>
<text text-anchor="middle" x="119.23" y="-127.26" font-family="Times,serif" font-size="14.00">in[0] (input)</text>
<text text-anchor="middle" x="120.82" y="-162.65" font-family="Times,serif" font-size="14.00">out (output)</text>
</g>
<!-- client[2] -->
<g id="node2" class="node">
<title>client[2]</title>
<polygon fill="none" stroke="black" points="71.46,-36 9.46,-36 9.46,0 71.46,0 71.46,-36"/>
<text text-anchor="middle" x="40.46" y="-14.3" font-family="Times,serif" font-size="14.00">client[2]</text>
</g>
<!-- client[2]&#45;&gt;router -->
<g id="edge2" class="edge">
<title>client[2]&#45;&gt;router</title>
<path fill="none" stroke="black" d="M65,-36.38C82.79,-48.98 107.06,-66.18 126.68,-80.07"/>
<polygon fill="black" stroke="black" points="124.47,-82.79 134.65,-85.72 128.51,-77.08 124.47,-82.79"/>
<text text-anchor="middle" x="111.96" y="-57.8" font-family="Times,serif" font-size="14.00">1</text>
<text text-anchor="middle" x="102.39" y="-75.39" font-family="Times,serif" font-size="14.00">in[1] (input)</text>
<text text-anchor="middle" x="32.5" y="-40.18" font-family="Times,serif" font-size="14.00">out (output)</text>
</g>
<!-- client[3] -->
<g id="node3" class="node">
<title>client[3]</title>
<polygon fill="none" stroke="black" points="151.46,-36 89.46,-36 89.46,0 151.46,0 151.46,-36"/>
<text text-anchor="middle" x="120.46" y="-14.3" font-family="Times,serif" font-size="14.00">client[3]</text>
</g>
<!-- client[3]&#45;&gt;router -->
<g id="edge3" class="edge">
<title>client[3]&#45;&gt;router</title>
<path fill="none" stroke="black" d="M128.68,-36.47C134.09,-47.97 141.3,-63.28 147.48,-76.41"/>
<polygon fill="black" stroke="black" points="144.3,-77.87 151.72,-85.43 150.63,-74.89 144.3,-77.87"/>
<text text-anchor="middle" x="146.96" y="-57.8" font-family="Times,serif" font-size="14.00">1</text>
<text text-anchor="middle" x="185.86" y="-75.6" font-family="Times,serif" font-size="14.00">in[2] (input)</text>
<text text-anchor="middle" x="161.18" y="-40.27" font-family="Times,serif" font-size="14.00">out (output)</text>
</g>
<!-- client[4] -->
<g id="node4" class="node">
<title>client[4]</title>
<polygon fill="none" stroke="black" points="231.46,-36 169.46,-36 169.46,0 231.46,0 231.46,-36"/>
<text text-anchor="middle" x="200.46" y="-14.3" font-family="Times,serif" font-size="14.00">client[4]</text>
</g>
<!-- client[4]&#45;&gt;router -->
<g id="edge4" class="edge">
<title>client[4]&#45;&gt;router</title>
<path fill="none" stroke="black" d="M195.82,-36.09C192.86,-45.96 188.61,-58.46 183.46,-69 182.13,-71.72 180.62,-74.49 179.03,-77.21"/>
<polygon fill="black" stroke="black" points="176.22,-75.1 173.87,-85.43 182.15,-78.82 176.22,-75.1"/>
<text text-anchor="middle" x="192.96" y="-57.8" font-family="Times,serif" font-size="14.00">1</text>
<text text-anchor="middle" x="206.57" y="-90.51" font-family="Times,serif" font-size="14.00">in[3] (input)</text>
<text text-anchor="middle" x="228.32" y="-39.89" font-family="Times,serif" font-size="14.00">out (output)</text>
</g>
<!-- client[5] -->
<g id="node5" class="node">
<title>client[5]</title>
<polygon fill="none" stroke="black" points="311.46,-36 249.46,-36 249.46,0 311.46,0 311.46,-36"/>
<text text-anchor="middle" x="280.46" y="-14.3" font-family="Times,serif" font-size="14.00">client[5]</text>
</g>
<!-- client[5]&#45;&gt;router -->
<g id="edge5" class="edge">
<title>client[5]&#45;&gt;router</title>
<path fill="none" stroke="black" d="M274.69,-36.32C270.35,-47.01 263.42,-60.31 253.46,-69 237.96,-82.53 216.72,-91.05 198.45,-96.29"/>
<polygon fill="black" stroke="black" points="197.79,-92.85 189.01,-98.76 199.57,-99.62 197.79,-92.85"/>
<text text-anchor="middle" x="267.96" y="-57.8" font-family="Times,serif" font-size="14.00">1</text>
<text text-anchor="middle" x="221.04" y="-102.95" font-family="Times,serif" font-size="14.00">in[4] (input)</text>
<text text-anchor="middle" x="307.19" y="-40.12" font-family="Times,serif" font-size="14.00">out (output)</text>
</g>
<!-- router&#45;&gt;client[1] -->
<g id="edge6" class="edge">
<title>router&#45;&gt;client[1]</title>
<path fill="none" stroke="black" d="M160.46,-123.47C160.46,-134.74 160.46,-149.67 160.46,-162.62"/>
<polygon fill="black" stroke="black" points="156.96,-162.29 160.46,-172.29 163.96,-162.29 156.96,-162.29"/>
<text text-anchor="middle" x="163.96" y="-144.8" font-family="Times,serif" font-size="14.00">1</text>
<text text-anchor="middle" x="186.46" y="-162.6" font-family="Times,serif" font-size="14.00">in (input)</text>
<text text-anchor="middle" x="200.96" y="-127.27" font-family="Times,serif" font-size="14.00">out[0] (output)</text>
</g>
<!-- router&#45;&gt;client[2] -->
<g id="edge7" class="edge">
<title>router&#45;&gt;client[2]</title>
<path fill="none" stroke="black" d="M133.2,-95.23C117.42,-89.34 97.74,-80.54 82.46,-69 73.78,-62.45 65.71,-53.79 59.01,-45.52"/>
<polygon fill="black" stroke="black" points="61.86,-43.48 52.99,-37.68 56.31,-47.74 61.86,-43.48"/>
<text text-anchor="middle" x="85.96" y="-57.8" font-family="Times,serif" font-size="14.00">1</text>
<text text-anchor="middle" x="78.07" y="-40.28" font-family="Times,serif" font-size="14.00">in (input)</text>
<text text-anchor="middle" x="92.7" y="-99.03" font-family="Times,serif" font-size="14.00">out[1] (output)</text>
</g>
<!-- router&#45;&gt;client[3] -->
<g id="edge8" class="edge">
<title>router&#45;&gt;client[3]</title>
<path fill="none" stroke="black" d="M140.24,-86.76C135.31,-81.55 130.57,-75.47 127.46,-69 124.31,-62.44 122.47,-54.88 121.42,-47.65"/>
<polygon fill="black" stroke="black" points="124.92,-47.53 120.47,-37.92 117.95,-48.21 124.92,-47.53"/>
<text text-anchor="middle" x="130.96" y="-57.8" font-family="Times,serif" font-size="14.00">1</text>
<text text-anchor="middle" x="94.32" y="-40.21" font-family="Times,serif" font-size="14.00">in (input)</text>
<text text-anchor="middle" x="99.74" y="-90.56" font-family="Times,serif" font-size="14.00">out[2] (output)</text>
</g>
<!-- router&#45;&gt;client[4] -->
<g id="edge9" class="edge">
<title>router&#45;&gt;client[4]</title>
<path fill="none" stroke="black" d="M165.58,-86.96C168.79,-77.12 173.29,-64.62 178.46,-54 179.72,-51.4 181.14,-48.76 182.62,-46.14"/>
<polygon fill="black" stroke="black" points="185.55,-48.05 187.72,-37.68 179.56,-44.43 185.55,-48.05"/>
<text text-anchor="middle" x="181.96" y="-57.8" font-family="Times,serif" font-size="14.00">1</text>
<text text-anchor="middle" x="162.5" y="-25.18" font-family="Times,serif" font-size="14.00">in (input)</text>
<text text-anchor="middle" x="206.08" y="-75.76" font-family="Times,serif" font-size="14.00">out[3] (output)</text>
</g>
<!-- router&#45;&gt;client[5] -->
<g id="edge10" class="edge">
<title>router&#45;&gt;client[5]</title>
<path fill="none" stroke="black" d="M185.03,-86.59C202.83,-73.99 227.1,-56.79 246.71,-42.9"/>
<polygon fill="black" stroke="black" points="248.55,-45.89 254.68,-37.26 244.5,-40.18 248.55,-45.89"/>
<text text-anchor="middle" x="230.96" y="-57.8" font-family="Times,serif" font-size="14.00">1</text>
<text text-anchor="middle" x="229.92" y="-25.18" font-family="Times,serif" font-size="14.00">in (input)</text>
<text text-anchor="middle" x="225.53" y="-90.39" font-family="Times,serif" font-size="14.00">out[4] (output)</text>
</g>
</g>
</svg>
